<mxfile host="app.diagrams.net" agent="Mozilla/5.0 (Macintosh; Intel Mac OS X 10_15_7) AppleWebKit/537.36 (KHTML, like Gecko) Chrome/139.0.0.0 Safari/537.36" version="27.2.0">
  <diagram name="Client-Server Diagram" id="_iXNkQXKJSDpI1TCn4Rz">
    <mxGraphModel dx="2505" dy="1628" grid="1" gridSize="10" guides="1" tooltips="1" connect="1" arrows="1" fold="1" page="1" pageScale="1" pageWidth="850" pageHeight="1100" math="0" shadow="0">
      <root>
        <mxCell id="0" />
        <mxCell id="1" parent="0" />
        <mxCell id="-etB0V2U4IquZ-0CxUbf-7" style="edgeStyle=orthogonalEdgeStyle;rounded=0;orthogonalLoop=1;jettySize=auto;html=1;" edge="1" parent="1" source="-etB0V2U4IquZ-0CxUbf-4" target="-etB0V2U4IquZ-0CxUbf-5">
          <mxGeometry relative="1" as="geometry" />
        </mxCell>
        <mxCell id="-etB0V2U4IquZ-0CxUbf-4" value="&lt;font style=&quot;font-size: 20px;&quot;&gt;Client&lt;/font&gt;" style="rounded=1;whiteSpace=wrap;html=1;fillColor=#D5E8D4;" vertex="1" parent="1">
          <mxGeometry x="40" y="130" width="120" height="120" as="geometry" />
        </mxCell>
        <mxCell id="-etB0V2U4IquZ-0CxUbf-9" style="edgeStyle=orthogonalEdgeStyle;rounded=0;orthogonalLoop=1;jettySize=auto;html=1;" edge="1" parent="1" source="-etB0V2U4IquZ-0CxUbf-5" target="-etB0V2U4IquZ-0CxUbf-6">
          <mxGeometry relative="1" as="geometry" />
        </mxCell>
        <mxCell id="-etB0V2U4IquZ-0CxUbf-10" value="&lt;font style=&quot;font-size: 16px;&quot;&gt;POST&amp;nbsp;&lt;/font&gt;&lt;div&gt;&lt;font style=&quot;font-size: 16px;&quot;&gt;/incoming-call&lt;/font&gt;&lt;/div&gt;" style="edgeLabel;html=1;align=center;verticalAlign=middle;resizable=0;points=[];" vertex="1" connectable="0" parent="-etB0V2U4IquZ-0CxUbf-9">
          <mxGeometry x="-0.1662" y="2" relative="1" as="geometry">
            <mxPoint x="16" y="2" as="offset" />
          </mxGeometry>
        </mxCell>
        <mxCell id="-etB0V2U4IquZ-0CxUbf-5" value="&lt;span style=&quot;font-size: 20px;&quot;&gt;Twilio&lt;/span&gt;&lt;div&gt;&lt;span style=&quot;font-size: 20px;&quot;&gt;Server&lt;/span&gt;&lt;/div&gt;" style="rounded=1;whiteSpace=wrap;html=1;fillColor=#DAE8FC;" vertex="1" parent="1">
          <mxGeometry x="430" y="120" width="210" height="140" as="geometry" />
        </mxCell>
        <mxCell id="-etB0V2U4IquZ-0CxUbf-6" value="&lt;span style=&quot;font-size: 20px;&quot;&gt;Backend&amp;nbsp;&lt;/span&gt;&lt;div&gt;&lt;span style=&quot;font-size: 20px;&quot;&gt;Server&lt;/span&gt;&lt;/div&gt;" style="rounded=1;whiteSpace=wrap;html=1;fillColor=#e1d5e7;strokeColor=#9673a6;" vertex="1" parent="1">
          <mxGeometry x="870" y="120" width="210" height="140" as="geometry" />
        </mxCell>
        <mxCell id="-etB0V2U4IquZ-0CxUbf-8" value="User Calls Assigned&lt;div&gt;Phone Number&lt;/div&gt;" style="shape=note;whiteSpace=wrap;html=1;fillColor=#FFF2CC;" vertex="1" parent="1">
          <mxGeometry x="200" y="200" width="170" height="60" as="geometry" />
        </mxCell>
        <mxCell id="-etB0V2U4IquZ-0CxUbf-11" value="Media Stream&lt;div&gt;(Websocket URL)&lt;/div&gt;" style="shape=note;whiteSpace=wrap;html=1;fillColor=#FFF2CC;" vertex="1" parent="1">
          <mxGeometry x="700" y="310" width="170" height="60" as="geometry" />
        </mxCell>
        <mxCell id="-etB0V2U4IquZ-0CxUbf-12" style="edgeStyle=orthogonalEdgeStyle;rounded=0;orthogonalLoop=1;jettySize=auto;html=1;entryX=0;entryY=0;entryDx=170;entryDy=30;entryPerimeter=0;" edge="1" parent="1" source="-etB0V2U4IquZ-0CxUbf-6" target="-etB0V2U4IquZ-0CxUbf-11">
          <mxGeometry relative="1" as="geometry" />
        </mxCell>
        <mxCell id="-etB0V2U4IquZ-0CxUbf-13" style="edgeStyle=orthogonalEdgeStyle;rounded=0;orthogonalLoop=1;jettySize=auto;html=1;entryX=0.465;entryY=1.01;entryDx=0;entryDy=0;entryPerimeter=0;" edge="1" parent="1" source="-etB0V2U4IquZ-0CxUbf-11" target="-etB0V2U4IquZ-0CxUbf-5">
          <mxGeometry relative="1" as="geometry" />
        </mxCell>
        <mxCell id="-etB0V2U4IquZ-0CxUbf-16" style="rounded=0;orthogonalLoop=1;jettySize=auto;html=1;startArrow=classic;startFill=1;" edge="1" parent="1" source="-etB0V2U4IquZ-0CxUbf-14" target="-etB0V2U4IquZ-0CxUbf-15">
          <mxGeometry relative="1" as="geometry" />
        </mxCell>
        <mxCell id="-etB0V2U4IquZ-0CxUbf-18" value="&lt;font style=&quot;font-size: 16px;&quot;&gt;Websocket Conn&lt;/font&gt;&lt;div&gt;&lt;font style=&quot;font-size: 16px;&quot;&gt;/media-stream&lt;/font&gt;&lt;/div&gt;" style="edgeLabel;html=1;align=center;verticalAlign=middle;resizable=0;points=[];" vertex="1" connectable="0" parent="-etB0V2U4IquZ-0CxUbf-16">
          <mxGeometry x="-0.1034" y="3" relative="1" as="geometry">
            <mxPoint as="offset" />
          </mxGeometry>
        </mxCell>
        <mxCell id="-etB0V2U4IquZ-0CxUbf-14" value="&lt;span style=&quot;font-size: 20px;&quot;&gt;Twilio&lt;/span&gt;&lt;div&gt;&lt;span style=&quot;font-size: 20px;&quot;&gt;Server&lt;/span&gt;&lt;/div&gt;" style="rounded=1;whiteSpace=wrap;html=1;fillColor=#DAE8FC;" vertex="1" parent="1">
          <mxGeometry x="420" y="480" width="210" height="140" as="geometry" />
        </mxCell>
        <mxCell id="-etB0V2U4IquZ-0CxUbf-15" value="&lt;span style=&quot;font-size: 20px;&quot;&gt;Backend&amp;nbsp;&lt;/span&gt;&lt;div&gt;&lt;span style=&quot;font-size: 20px;&quot;&gt;Server&lt;/span&gt;&lt;/div&gt;" style="rounded=1;whiteSpace=wrap;html=1;fillColor=#e1d5e7;strokeColor=#9673a6;" vertex="1" parent="1">
          <mxGeometry x="860" y="480" width="210" height="140" as="geometry" />
        </mxCell>
        <mxCell id="-etB0V2U4IquZ-0CxUbf-21" style="edgeStyle=orthogonalEdgeStyle;rounded=0;orthogonalLoop=1;jettySize=auto;html=1;" edge="1" parent="1" source="-etB0V2U4IquZ-0CxUbf-19" target="-etB0V2U4IquZ-0CxUbf-14">
          <mxGeometry relative="1" as="geometry" />
        </mxCell>
        <mxCell id="-etB0V2U4IquZ-0CxUbf-19" value="&lt;font style=&quot;font-size: 20px;&quot;&gt;Client&lt;/font&gt;" style="rounded=1;whiteSpace=wrap;html=1;fillColor=#D5E8D4;" vertex="1" parent="1">
          <mxGeometry x="40" y="490" width="120" height="120" as="geometry" />
        </mxCell>
        <mxCell id="-etB0V2U4IquZ-0CxUbf-22" value="User on Phone" style="shape=note;whiteSpace=wrap;html=1;fillColor=#FFF2CC;" vertex="1" parent="1">
          <mxGeometry x="190" y="560" width="170" height="60" as="geometry" />
        </mxCell>
        <mxCell id="-etB0V2U4IquZ-0CxUbf-23" style="rounded=0;orthogonalLoop=1;jettySize=auto;html=1;startArrow=classic;startFill=1;" edge="1" parent="1" source="-etB0V2U4IquZ-0CxUbf-25" target="-etB0V2U4IquZ-0CxUbf-26">
          <mxGeometry relative="1" as="geometry" />
        </mxCell>
        <mxCell id="-etB0V2U4IquZ-0CxUbf-24" value="&lt;font style=&quot;font-size: 16px;&quot;&gt;Websocket Conn&lt;/font&gt;&lt;div&gt;&lt;font style=&quot;font-size: 16px;&quot;&gt;/media-stream&lt;/font&gt;&lt;/div&gt;" style="edgeLabel;html=1;align=center;verticalAlign=middle;resizable=0;points=[];" vertex="1" connectable="0" parent="-etB0V2U4IquZ-0CxUbf-23">
          <mxGeometry x="-0.1034" y="3" relative="1" as="geometry">
            <mxPoint as="offset" />
          </mxGeometry>
        </mxCell>
        <mxCell id="-etB0V2U4IquZ-0CxUbf-25" value="&lt;span style=&quot;font-size: 20px;&quot;&gt;Twilio&lt;/span&gt;&lt;div&gt;&lt;span style=&quot;font-size: 20px;&quot;&gt;Server&lt;/span&gt;&lt;/div&gt;" style="rounded=1;whiteSpace=wrap;html=1;fillColor=#DAE8FC;" vertex="1" parent="1">
          <mxGeometry x="430" y="730" width="210" height="140" as="geometry" />
        </mxCell>
        <mxCell id="-etB0V2U4IquZ-0CxUbf-26" value="&lt;span style=&quot;font-size: 20px;&quot;&gt;Backend&amp;nbsp;&lt;/span&gt;&lt;div&gt;&lt;span style=&quot;font-size: 20px;&quot;&gt;Server&lt;/span&gt;&lt;/div&gt;" style="rounded=1;whiteSpace=wrap;html=1;fillColor=#e1d5e7;strokeColor=#9673a6;" vertex="1" parent="1">
          <mxGeometry x="870" y="730" width="210" height="140" as="geometry" />
        </mxCell>
        <mxCell id="-etB0V2U4IquZ-0CxUbf-27" style="edgeStyle=orthogonalEdgeStyle;rounded=0;orthogonalLoop=1;jettySize=auto;html=1;" edge="1" parent="1" target="-etB0V2U4IquZ-0CxUbf-25">
          <mxGeometry relative="1" as="geometry">
            <mxPoint x="170" y="800" as="sourcePoint" />
          </mxGeometry>
        </mxCell>
        <mxCell id="-etB0V2U4IquZ-0CxUbf-28" value="User on Phone" style="shape=note;whiteSpace=wrap;html=1;fillColor=#FFF2CC;" vertex="1" parent="1">
          <mxGeometry x="200" y="810" width="170" height="60" as="geometry" />
        </mxCell>
        <mxCell id="-etB0V2U4IquZ-0CxUbf-29" value="&lt;font style=&quot;font-size: 20px;&quot;&gt;Client&lt;/font&gt;" style="rounded=1;whiteSpace=wrap;html=1;fillColor=#D5E8D4;" vertex="1" parent="1">
          <mxGeometry x="40" y="740" width="120" height="120" as="geometry" />
        </mxCell>
        <mxCell id="-etB0V2U4IquZ-0CxUbf-30" value="&lt;font style=&quot;font-size: 20px;&quot;&gt;OpenAI&lt;/font&gt;&lt;div&gt;&lt;font style=&quot;font-size: 20px;&quot;&gt;Server&lt;/font&gt;&lt;/div&gt;" style="rounded=1;whiteSpace=wrap;html=1;fillColor=#f8cecc;strokeColor=#b85450;" vertex="1" parent="1">
          <mxGeometry x="1310" y="730" width="210" height="140" as="geometry" />
        </mxCell>
        <mxCell id="-etB0V2U4IquZ-0CxUbf-31" style="rounded=0;orthogonalLoop=1;jettySize=auto;html=1;startArrow=classic;startFill=1;" edge="1" parent="1">
          <mxGeometry relative="1" as="geometry">
            <mxPoint x="1080" y="799.44" as="sourcePoint" />
            <mxPoint x="1310" y="799.44" as="targetPoint" />
          </mxGeometry>
        </mxCell>
        <mxCell id="-etB0V2U4IquZ-0CxUbf-32" value="&lt;font style=&quot;font-size: 16px;&quot;&gt;Websocket Conn&lt;/font&gt;&lt;div&gt;&lt;font style=&quot;font-size: 16px;&quot;&gt;/v1/realtime&lt;/font&gt;&lt;/div&gt;" style="edgeLabel;html=1;align=center;verticalAlign=middle;resizable=0;points=[];" vertex="1" connectable="0" parent="-etB0V2U4IquZ-0CxUbf-31">
          <mxGeometry x="-0.1034" y="3" relative="1" as="geometry">
            <mxPoint as="offset" />
          </mxGeometry>
        </mxCell>
        <mxCell id="-etB0V2U4IquZ-0CxUbf-33" value="Actor" style="shape=umlActor;verticalLabelPosition=bottom;verticalAlign=top;html=1;outlineConnect=0;fillColor=#d5e8d4;strokeColor=#82b366;" vertex="1" parent="1">
          <mxGeometry x="50" y="1180" width="170" height="240" as="geometry" />
        </mxCell>
        <mxCell id="-etB0V2U4IquZ-0CxUbf-49" style="edgeStyle=orthogonalEdgeStyle;rounded=0;orthogonalLoop=1;jettySize=auto;html=1;" edge="1" parent="1" source="-etB0V2U4IquZ-0CxUbf-34" target="-etB0V2U4IquZ-0CxUbf-42">
          <mxGeometry relative="1" as="geometry" />
        </mxCell>
        <mxCell id="-etB0V2U4IquZ-0CxUbf-34" value="User Says&lt;div&gt;&quot;Can you book reservations for 2 people next weekend?&quot;&lt;/div&gt;" style="shape=note;whiteSpace=wrap;html=1;fillColor=#FFF2CC;" vertex="1" parent="1">
          <mxGeometry x="250" y="1240" width="230" height="120" as="geometry" />
        </mxCell>
        <mxCell id="-etB0V2U4IquZ-0CxUbf-40" style="rounded=0;orthogonalLoop=1;jettySize=auto;html=1;startArrow=classic;startFill=1;" edge="1" parent="1" source="-etB0V2U4IquZ-0CxUbf-42" target="-etB0V2U4IquZ-0CxUbf-43">
          <mxGeometry relative="1" as="geometry" />
        </mxCell>
        <mxCell id="-etB0V2U4IquZ-0CxUbf-41" value="&lt;font style=&quot;font-size: 16px;&quot;&gt;Websocket Conn&lt;/font&gt;&lt;div&gt;&lt;font style=&quot;font-size: 16px;&quot;&gt;/media-stream&lt;/font&gt;&lt;/div&gt;" style="edgeLabel;html=1;align=center;verticalAlign=middle;resizable=0;points=[];" vertex="1" connectable="0" parent="-etB0V2U4IquZ-0CxUbf-40">
          <mxGeometry x="-0.1034" y="3" relative="1" as="geometry">
            <mxPoint as="offset" />
          </mxGeometry>
        </mxCell>
        <mxCell id="-etB0V2U4IquZ-0CxUbf-42" value="&lt;span style=&quot;font-size: 20px;&quot;&gt;Twilio&lt;/span&gt;&lt;div&gt;&lt;span style=&quot;font-size: 20px;&quot;&gt;Server&lt;/span&gt;&lt;/div&gt;" style="rounded=1;whiteSpace=wrap;html=1;fillColor=#DAE8FC;" vertex="1" parent="1">
          <mxGeometry x="680" y="1230" width="210" height="140" as="geometry" />
        </mxCell>
        <mxCell id="-etB0V2U4IquZ-0CxUbf-43" value="&lt;span style=&quot;font-size: 20px;&quot;&gt;Backend&amp;nbsp;&lt;/span&gt;&lt;div&gt;&lt;span style=&quot;font-size: 20px;&quot;&gt;Server&lt;/span&gt;&lt;/div&gt;" style="rounded=1;whiteSpace=wrap;html=1;fillColor=#e1d5e7;strokeColor=#9673a6;" vertex="1" parent="1">
          <mxGeometry x="1120" y="1230" width="210" height="140" as="geometry" />
        </mxCell>
        <mxCell id="-etB0V2U4IquZ-0CxUbf-46" value="&lt;font style=&quot;font-size: 20px;&quot;&gt;OpenAI&lt;/font&gt;&lt;div&gt;&lt;font style=&quot;font-size: 20px;&quot;&gt;Server&lt;/font&gt;&lt;/div&gt;" style="rounded=1;whiteSpace=wrap;html=1;fillColor=#f8cecc;strokeColor=#b85450;" vertex="1" parent="1">
          <mxGeometry x="1560" y="1230" width="210" height="140" as="geometry" />
        </mxCell>
        <mxCell id="-etB0V2U4IquZ-0CxUbf-47" style="rounded=0;orthogonalLoop=1;jettySize=auto;html=1;startArrow=classic;startFill=1;" edge="1" parent="1">
          <mxGeometry relative="1" as="geometry">
            <mxPoint x="1330" y="1299.44" as="sourcePoint" />
            <mxPoint x="1560" y="1299.44" as="targetPoint" />
          </mxGeometry>
        </mxCell>
        <mxCell id="-etB0V2U4IquZ-0CxUbf-48" value="&lt;font style=&quot;font-size: 16px;&quot;&gt;Websocket Conn&lt;/font&gt;&lt;div&gt;&lt;font style=&quot;font-size: 16px;&quot;&gt;/v1/realtime&lt;/font&gt;&lt;/div&gt;" style="edgeLabel;html=1;align=center;verticalAlign=middle;resizable=0;points=[];" vertex="1" connectable="0" parent="-etB0V2U4IquZ-0CxUbf-47">
          <mxGeometry x="-0.1034" y="3" relative="1" as="geometry">
            <mxPoint as="offset" />
          </mxGeometry>
        </mxCell>
        <mxCell id="-etB0V2U4IquZ-0CxUbf-50" value="User Says&lt;div&gt;&quot;Can you book reservations for 2 people next weekend?&quot;&lt;/div&gt;" style="shape=note;whiteSpace=wrap;html=1;fillColor=#FFF2CC;" vertex="1" parent="1">
          <mxGeometry x="700" y="1140" width="170" height="80" as="geometry" />
        </mxCell>
        <mxCell id="-etB0V2U4IquZ-0CxUbf-51" value="User Says&lt;div&gt;&quot;Can you book reservations for 2 people next weekend?&quot;&lt;/div&gt;" style="shape=note;whiteSpace=wrap;html=1;fillColor=#FFF2CC;" vertex="1" parent="1">
          <mxGeometry x="1140" y="1140" width="170" height="80" as="geometry" />
        </mxCell>
        <mxCell id="-etB0V2U4IquZ-0CxUbf-52" value="User Says&lt;div&gt;&quot;Can you book reservations for 2 people next weekend?&quot;&lt;/div&gt;" style="shape=note;whiteSpace=wrap;html=1;fillColor=#FFF2CC;" vertex="1" parent="1">
          <mxGeometry x="1590" y="1130" width="170" height="80" as="geometry" />
        </mxCell>
        <mxCell id="-etB0V2U4IquZ-0CxUbf-56" style="edgeStyle=orthogonalEdgeStyle;rounded=0;orthogonalLoop=1;jettySize=auto;html=1;entryX=1;entryY=0.5;entryDx=0;entryDy=0;" edge="1" parent="1" source="-etB0V2U4IquZ-0CxUbf-53" target="-etB0V2U4IquZ-0CxUbf-55">
          <mxGeometry relative="1" as="geometry" />
        </mxCell>
        <mxCell id="-etB0V2U4IquZ-0CxUbf-53" value="(Example)&lt;div&gt;Call Tool &quot;show_availability&quot; with arguments:&lt;/div&gt;&lt;div&gt;&lt;br&gt;&lt;/div&gt;&lt;div&gt;n = 2&lt;/div&gt;&lt;div&gt;start_date = 2025-05-05&lt;/div&gt;&lt;div&gt;end_date = 2025-05-06&lt;/div&gt;" style="shape=note;whiteSpace=wrap;html=1;fillColor=#647687;fontColor=#ffffff;strokeColor=#314354;" vertex="1" parent="1">
          <mxGeometry x="1580" y="1420" width="200" height="120" as="geometry" />
        </mxCell>
        <mxCell id="-etB0V2U4IquZ-0CxUbf-55" value="&lt;span style=&quot;font-size: 20px;&quot;&gt;Backend&amp;nbsp;&lt;/span&gt;&lt;div&gt;&lt;span style=&quot;font-size: 20px;&quot;&gt;Server&lt;/span&gt;&lt;/div&gt;" style="rounded=1;whiteSpace=wrap;html=1;fillColor=#e1d5e7;strokeColor=#9673a6;" vertex="1" parent="1">
          <mxGeometry x="1120" y="1410" width="210" height="140" as="geometry" />
        </mxCell>
        <mxCell id="-etB0V2U4IquZ-0CxUbf-59" style="edgeStyle=orthogonalEdgeStyle;rounded=0;orthogonalLoop=1;jettySize=auto;html=1;" edge="1" parent="1" source="-etB0V2U4IquZ-0CxUbf-57" target="-etB0V2U4IquZ-0CxUbf-58">
          <mxGeometry relative="1" as="geometry" />
        </mxCell>
        <mxCell id="-etB0V2U4IquZ-0CxUbf-57" value="(Example)&lt;div&gt;&lt;br&gt;&lt;/div&gt;&lt;div&gt;- Invokes function with parameters&lt;/div&gt;&lt;div&gt;- Returns availability response to OpenAI server&lt;/div&gt;" style="shape=note;whiteSpace=wrap;html=1;fillColor=#647687;fontColor=#ffffff;strokeColor=#314354;" vertex="1" parent="1">
          <mxGeometry x="1125" y="1590" width="200" height="120" as="geometry" />
        </mxCell>
        <mxCell id="-etB0V2U4IquZ-0CxUbf-58" value="&lt;font style=&quot;font-size: 20px;&quot;&gt;OpenAI&lt;/font&gt;&lt;div&gt;&lt;font style=&quot;font-size: 20px;&quot;&gt;Server&lt;/font&gt;&lt;/div&gt;" style="rounded=1;whiteSpace=wrap;html=1;fillColor=#f8cecc;strokeColor=#b85450;" vertex="1" parent="1">
          <mxGeometry x="1580" y="1580" width="210" height="140" as="geometry" />
        </mxCell>
        <mxCell id="-etB0V2U4IquZ-0CxUbf-62" style="edgeStyle=orthogonalEdgeStyle;rounded=0;orthogonalLoop=1;jettySize=auto;html=1;entryX=1;entryY=0.5;entryDx=0;entryDy=0;" edge="1" parent="1" source="-etB0V2U4IquZ-0CxUbf-60" target="-etB0V2U4IquZ-0CxUbf-61">
          <mxGeometry relative="1" as="geometry" />
        </mxCell>
        <mxCell id="-etB0V2U4IquZ-0CxUbf-60" value="(Example)&lt;div&gt;&lt;br&gt;&lt;/div&gt;&lt;div&gt;Uses function response to figure out if there&#39;s availability. After that, responds:&amp;nbsp;&lt;/div&gt;&lt;div&gt;&lt;br&gt;&lt;/div&gt;&lt;div&gt;&quot;Yes, there&#39;s availability. Shall I go ahead and book for 2 people?&quot;&lt;/div&gt;" style="shape=note;whiteSpace=wrap;html=1;fillColor=#647687;fontColor=#ffffff;strokeColor=#314354;" vertex="1" parent="1">
          <mxGeometry x="1590" y="1780" width="200" height="120" as="geometry" />
        </mxCell>
        <mxCell id="-etB0V2U4IquZ-0CxUbf-64" style="edgeStyle=orthogonalEdgeStyle;rounded=0;orthogonalLoop=1;jettySize=auto;html=1;entryX=1;entryY=0.5;entryDx=0;entryDy=0;" edge="1" parent="1" source="-etB0V2U4IquZ-0CxUbf-61" target="-etB0V2U4IquZ-0CxUbf-63">
          <mxGeometry relative="1" as="geometry" />
        </mxCell>
        <mxCell id="-etB0V2U4IquZ-0CxUbf-61" value="&lt;span style=&quot;font-size: 20px;&quot;&gt;Backend&amp;nbsp;&lt;/span&gt;&lt;div&gt;&lt;span style=&quot;font-size: 20px;&quot;&gt;Server&lt;/span&gt;&lt;/div&gt;" style="rounded=1;whiteSpace=wrap;html=1;fillColor=#e1d5e7;strokeColor=#9673a6;" vertex="1" parent="1">
          <mxGeometry x="1115" y="1770" width="210" height="140" as="geometry" />
        </mxCell>
        <mxCell id="-etB0V2U4IquZ-0CxUbf-67" style="edgeStyle=orthogonalEdgeStyle;rounded=0;orthogonalLoop=1;jettySize=auto;html=1;" edge="1" parent="1" source="-etB0V2U4IquZ-0CxUbf-63" target="-etB0V2U4IquZ-0CxUbf-65">
          <mxGeometry relative="1" as="geometry" />
        </mxCell>
        <mxCell id="-etB0V2U4IquZ-0CxUbf-63" value="&lt;span style=&quot;font-size: 20px;&quot;&gt;Twilio&lt;/span&gt;&lt;div&gt;&lt;span style=&quot;font-size: 20px;&quot;&gt;Server&lt;/span&gt;&lt;/div&gt;" style="rounded=1;whiteSpace=wrap;html=1;fillColor=#DAE8FC;" vertex="1" parent="1">
          <mxGeometry x="680" y="1770" width="210" height="140" as="geometry" />
        </mxCell>
        <mxCell id="-etB0V2U4IquZ-0CxUbf-65" value="Actor" style="shape=umlActor;verticalLabelPosition=bottom;verticalAlign=top;html=1;outlineConnect=0;fillColor=#d5e8d4;strokeColor=#82b366;" vertex="1" parent="1">
          <mxGeometry x="50" y="1720" width="170" height="240" as="geometry" />
        </mxCell>
        <mxCell id="-etB0V2U4IquZ-0CxUbf-68" value="&quot;Yes, there&#39;s availability. Shall I go ahead and book for 2 people?&quot;" style="shape=note;whiteSpace=wrap;html=1;fillColor=#647687;fontColor=#ffffff;strokeColor=#314354;" vertex="1" parent="1">
          <mxGeometry x="340" y="1850" width="200" height="120" as="geometry" />
        </mxCell>
        <mxCell id="-etB0V2U4IquZ-0CxUbf-69" value="" style="rounded=0;whiteSpace=wrap;html=1;" vertex="1" parent="1">
          <mxGeometry x="40" y="970" width="1800" height="60" as="geometry" />
        </mxCell>
        <mxCell id="-etB0V2U4IquZ-0CxUbf-70" value="" style="rounded=0;whiteSpace=wrap;html=1;" vertex="1" parent="1">
          <mxGeometry x="40" y="2030" width="1800" height="60" as="geometry" />
        </mxCell>
        <mxCell id="-etB0V2U4IquZ-0CxUbf-73" value="&lt;font style=&quot;font-size: 20px;&quot;&gt;OpenAI&lt;/font&gt;&lt;div&gt;&lt;font style=&quot;font-size: 20px;&quot;&gt;Server&lt;/font&gt;&lt;/div&gt;" style="rounded=1;whiteSpace=wrap;html=1;fillColor=#f8cecc;strokeColor=#b85450;" vertex="1" parent="1">
          <mxGeometry x="1630" y="2130" width="210" height="140" as="geometry" />
        </mxCell>
        <mxCell id="-etB0V2U4IquZ-0CxUbf-76" value="&lt;span style=&quot;font-size: 20px;&quot;&gt;Backend&amp;nbsp;&lt;/span&gt;&lt;div&gt;&lt;span style=&quot;font-size: 20px;&quot;&gt;Server&lt;/span&gt;&lt;/div&gt;" style="rounded=1;whiteSpace=wrap;html=1;fillColor=#e1d5e7;strokeColor=#9673a6;" vertex="1" parent="1">
          <mxGeometry x="1080" y="2130" width="210" height="140" as="geometry" />
        </mxCell>
        <mxCell id="-etB0V2U4IquZ-0CxUbf-77" value="" style="endArrow=classic;html=1;rounded=0;strokeWidth=8;" edge="1" parent="1">
          <mxGeometry width="50" height="50" relative="1" as="geometry">
            <mxPoint x="1030" y="2160" as="sourcePoint" />
            <mxPoint x="1030" y="3184.705882352941" as="targetPoint" />
          </mxGeometry>
        </mxCell>
        <mxCell id="-etB0V2U4IquZ-0CxUbf-78" value="&lt;font style=&quot;font-size: 24px;&quot;&gt;Time Increasing&lt;/font&gt;" style="text;html=1;align=center;verticalAlign=middle;whiteSpace=wrap;rounded=0;" vertex="1" parent="1">
          <mxGeometry x="920" y="2190" width="60" height="30" as="geometry" />
        </mxCell>
        <mxCell id="-etB0V2U4IquZ-0CxUbf-79" value="" style="endArrow=classic;html=1;rounded=0;strokeWidth=1;dashed=1;" edge="1" parent="1">
          <mxGeometry width="50" height="50" relative="1" as="geometry">
            <mxPoint x="1440" y="2275" as="sourcePoint" />
            <mxPoint x="1440" y="3299.705882352941" as="targetPoint" />
          </mxGeometry>
        </mxCell>
        <mxCell id="-etB0V2U4IquZ-0CxUbf-85" value="" style="group" vertex="1" connectable="0" parent="1">
          <mxGeometry x="1570" y="2310" width="340" height="120" as="geometry" />
        </mxCell>
        <mxCell id="-etB0V2U4IquZ-0CxUbf-86" style="edgeStyle=orthogonalEdgeStyle;rounded=0;orthogonalLoop=1;jettySize=auto;html=1;" edge="1" parent="-etB0V2U4IquZ-0CxUbf-85" source="-etB0V2U4IquZ-0CxUbf-82">
          <mxGeometry relative="1" as="geometry">
            <mxPoint x="-150" y="30" as="targetPoint" />
          </mxGeometry>
        </mxCell>
        <mxCell id="-etB0V2U4IquZ-0CxUbf-82" value="&lt;div&gt;&lt;font style=&quot;font-size: 15px;&quot;&gt;type:&lt;/font&gt;&lt;/div&gt;&lt;font style=&quot;font-size: 15px;&quot;&gt;response.function_call_arguments.done&lt;/font&gt;" style="shape=process;whiteSpace=wrap;html=1;backgroundOutline=1;fillColor=#d5e8d4;strokeColor=#82b366;" vertex="1" parent="-etB0V2U4IquZ-0CxUbf-85">
          <mxGeometry width="340" height="60" as="geometry" />
        </mxCell>
        <mxCell id="-etB0V2U4IquZ-0CxUbf-84" value="&lt;span style=&quot;font-size: 15px;&quot;&gt;&quot;name&quot;: &quot;add&quot;&lt;/span&gt;&lt;div&gt;&lt;span style=&quot;font-size: 15px;&quot;&gt;&amp;nbsp;&quot;arguments&quot;: &quot;{}&quot;&lt;/span&gt;&lt;/div&gt;&lt;div&gt;&lt;span style=&quot;font-size: 15px;&quot;&gt;&quot;call_id&quot;: 123&lt;/span&gt;&lt;/div&gt;" style="shape=process;whiteSpace=wrap;html=1;backgroundOutline=1;fillColor=#fff2cc;strokeColor=#d6b656;" vertex="1" parent="-etB0V2U4IquZ-0CxUbf-85">
          <mxGeometry y="60" width="340" height="60" as="geometry" />
        </mxCell>
        <mxCell id="-etB0V2U4IquZ-0CxUbf-87" value="" style="group" vertex="1" connectable="0" parent="1">
          <mxGeometry x="1070" y="2470" width="340" height="120" as="geometry" />
        </mxCell>
        <mxCell id="-etB0V2U4IquZ-0CxUbf-88" style="edgeStyle=orthogonalEdgeStyle;rounded=0;orthogonalLoop=1;jettySize=auto;html=1;" edge="1" parent="-etB0V2U4IquZ-0CxUbf-87" source="-etB0V2U4IquZ-0CxUbf-89">
          <mxGeometry relative="1" as="geometry">
            <mxPoint x="490" y="30" as="targetPoint" />
          </mxGeometry>
        </mxCell>
        <mxCell id="-etB0V2U4IquZ-0CxUbf-89" value="&lt;div&gt;&lt;font style=&quot;font-size: 15px;&quot;&gt;type:&lt;/font&gt;&lt;/div&gt;&lt;font style=&quot;font-size: 15px;&quot;&gt;conversation.item.create&lt;/font&gt;" style="shape=process;whiteSpace=wrap;html=1;backgroundOutline=1;fillColor=#d5e8d4;strokeColor=#82b366;" vertex="1" parent="-etB0V2U4IquZ-0CxUbf-87">
          <mxGeometry width="340" height="60" as="geometry" />
        </mxCell>
        <mxCell id="-etB0V2U4IquZ-0CxUbf-90" value="&quot;type&quot;: &quot;function_call&quot;&lt;div&gt;&quot;call_id&quot;: 123&lt;/div&gt;&lt;div&gt;&quot;name&quot;: &quot;add&quot;&lt;/div&gt;&lt;div&gt;&quot;arguments&quot;: &quot;{}&quot;&lt;/div&gt;" style="shape=process;whiteSpace=wrap;html=1;backgroundOutline=1;fillColor=#fff2cc;strokeColor=#d6b656;" vertex="1" parent="-etB0V2U4IquZ-0CxUbf-87">
          <mxGeometry y="60" width="340" height="60" as="geometry" />
        </mxCell>
        <mxCell id="-etB0V2U4IquZ-0CxUbf-91" value="Invoke Functions Locally" style="ellipse;shape=cloud;whiteSpace=wrap;html=1;fillColor=#0050ef;fontColor=#ffffff;strokeColor=#001DBC;" vertex="1" parent="1">
          <mxGeometry x="1060" y="2610" width="360" height="80" as="geometry" />
        </mxCell>
        <mxCell id="-etB0V2U4IquZ-0CxUbf-92" value="" style="group" vertex="1" connectable="0" parent="1">
          <mxGeometry x="1070" y="2710" width="340" height="120" as="geometry" />
        </mxCell>
        <mxCell id="-etB0V2U4IquZ-0CxUbf-93" style="edgeStyle=orthogonalEdgeStyle;rounded=0;orthogonalLoop=1;jettySize=auto;html=1;" edge="1" parent="-etB0V2U4IquZ-0CxUbf-92" source="-etB0V2U4IquZ-0CxUbf-94">
          <mxGeometry relative="1" as="geometry">
            <mxPoint x="490" y="30" as="targetPoint" />
          </mxGeometry>
        </mxCell>
        <mxCell id="-etB0V2U4IquZ-0CxUbf-94" value="&lt;div&gt;&lt;font style=&quot;font-size: 15px;&quot;&gt;type:&lt;/font&gt;&lt;/div&gt;&lt;span style=&quot;font-size: 15px;&quot;&gt;conversation.item.create&lt;/span&gt;" style="shape=process;whiteSpace=wrap;html=1;backgroundOutline=1;fillColor=#d5e8d4;strokeColor=#82b366;" vertex="1" parent="-etB0V2U4IquZ-0CxUbf-92">
          <mxGeometry width="340" height="60" as="geometry" />
        </mxCell>
        <mxCell id="-etB0V2U4IquZ-0CxUbf-95" value="&quot;type&quot;: &quot;function_call_output&quot;&lt;div&gt;&quot;call_id&quot;: 123&lt;/div&gt;&lt;div&gt;&quot;output&quot;: &quot;5&quot;&lt;/div&gt;" style="shape=process;whiteSpace=wrap;html=1;backgroundOutline=1;fillColor=#fff2cc;strokeColor=#d6b656;" vertex="1" parent="-etB0V2U4IquZ-0CxUbf-92">
          <mxGeometry y="60" width="340" height="60" as="geometry" />
        </mxCell>
        <mxCell id="-etB0V2U4IquZ-0CxUbf-96" value="" style="group" vertex="1" connectable="0" parent="1">
          <mxGeometry x="1070" y="2870" width="340" height="120" as="geometry" />
        </mxCell>
        <mxCell id="-etB0V2U4IquZ-0CxUbf-97" style="edgeStyle=orthogonalEdgeStyle;rounded=0;orthogonalLoop=1;jettySize=auto;html=1;" edge="1" parent="-etB0V2U4IquZ-0CxUbf-96" source="-etB0V2U4IquZ-0CxUbf-98">
          <mxGeometry relative="1" as="geometry">
            <mxPoint x="490" y="30" as="targetPoint" />
          </mxGeometry>
        </mxCell>
        <mxCell id="-etB0V2U4IquZ-0CxUbf-98" value="&lt;div&gt;&lt;font style=&quot;font-size: 15px;&quot;&gt;type:&lt;/font&gt;&lt;/div&gt;&lt;span style=&quot;font-size: 15px;&quot;&gt;response.create&lt;/span&gt;" style="shape=process;whiteSpace=wrap;html=1;backgroundOutline=1;fillColor=#d5e8d4;strokeColor=#82b366;" vertex="1" parent="-etB0V2U4IquZ-0CxUbf-96">
          <mxGeometry width="340" height="60" as="geometry" />
        </mxCell>
        <mxCell id="-etB0V2U4IquZ-0CxUbf-99" value="N/A" style="shape=process;whiteSpace=wrap;html=1;backgroundOutline=1;fillColor=#fff2cc;strokeColor=#d6b656;" vertex="1" parent="-etB0V2U4IquZ-0CxUbf-96">
          <mxGeometry y="60" width="340" height="60" as="geometry" />
        </mxCell>
        <mxCell id="-etB0V2U4IquZ-0CxUbf-100" value="" style="group" vertex="1" connectable="0" parent="1">
          <mxGeometry x="1570" y="3040" width="340" height="120" as="geometry" />
        </mxCell>
        <mxCell id="-etB0V2U4IquZ-0CxUbf-101" style="edgeStyle=orthogonalEdgeStyle;rounded=0;orthogonalLoop=1;jettySize=auto;html=1;" edge="1" parent="-etB0V2U4IquZ-0CxUbf-100" source="-etB0V2U4IquZ-0CxUbf-102">
          <mxGeometry relative="1" as="geometry">
            <mxPoint x="-150" y="30" as="targetPoint" />
          </mxGeometry>
        </mxCell>
        <mxCell id="-etB0V2U4IquZ-0CxUbf-102" value="&lt;div&gt;&lt;font style=&quot;font-size: 15px;&quot;&gt;type:&lt;/font&gt;&lt;/div&gt;&lt;span style=&quot;font-size: 15px;&quot;&gt;response.audio.delta&lt;/span&gt;" style="shape=process;whiteSpace=wrap;html=1;backgroundOutline=1;fillColor=#d5e8d4;strokeColor=#82b366;" vertex="1" parent="-etB0V2U4IquZ-0CxUbf-100">
          <mxGeometry width="340" height="60" as="geometry" />
        </mxCell>
        <mxCell id="-etB0V2U4IquZ-0CxUbf-103" value="&lt;span style=&quot;font-size: 15px;&quot;&gt;&quot;delta&quot;: &quot;r32423424&quot;&lt;/span&gt;" style="shape=process;whiteSpace=wrap;html=1;backgroundOutline=1;fillColor=#fff2cc;strokeColor=#d6b656;" vertex="1" parent="-etB0V2U4IquZ-0CxUbf-100">
          <mxGeometry y="60" width="340" height="60" as="geometry" />
        </mxCell>
      </root>
    </mxGraphModel>
  </diagram>
</mxfile>
